# xmcd
#
# Track frame offsets:
#	150
#	14262
#	41060
#	62087
#	65222
#	75960
#	96294
#	121044
#	136067
#	148482
#	165214
#	183139
#	198821
#	223400
#	248703
#
# Disc length: 3484 seconds
#
# Revision: 0
# Processed by: cddbd v1.5.2PL0 Copyright (c) Steve Scherf et al.
# Submitted via: EasyCDDAExtractor 16.0.1.1
#
DISCID=ce0d9a0f
DTITLE=Clint Black - D'Lectrified
DYEAR=1999
DGENRE=Country
TTITLE0=Bob Away My Blues
TTITLE1=Are You Sure Waylon Done It This Way
TTITLE2=Hand In The Fire
TTITLE3=Outside Intro
TTITLE4=Galaxy Song
TTITLE5=When I Said I Do
TTITLE6=Been There
TTITLE7=Dixie Lullaby
TTITLE8=Where Your Love Won't Go
TTITLE9=Love She Can't Live Without
TTITLE10=Burn One Down
TTITLE11=Who I Use To Be
TTITLE12=Harmony
TTITLE13=No Time To Kill
TTITLE14=Untitled
EXTD=
EXTT0=
EXTT1=
EXTT2=
EXTT3=
EXTT4=
EXTT5=
EXTT6=
EXTT7=
EXTT8=
EXTT9=
EXTT10=
EXTT11=
EXTT12=
EXTT13=
EXTT14=
PLAYORDER=
